<?xml version="1.0" encoding="UTF-8"?><svg id="Calque_1" xmlns="http://www.w3.org/2000/svg" viewBox="0 0 601.7 221.89"><defs><style>.cls-1{fill:#689e41;}.cls-2{fill:#0c92d1;}.cls-3{fill:#479f35;}.cls-4{fill:#00659e;}.cls-5{fill:#e42235;}.cls-6{fill:#feca3b;}.cls-7{fill:#c52837;}.cls-8{fill:#39669d;}.cls-9{fill:#f0c74c;}.cls-10{fill:#5390cd;}.cls-11{fill:#1d1d1b;}</style></defs><rect class="cls-8" x="171.39" y="0" width="19.6" height="87.28" transform="translate(362.38 87.28) rotate(-180)"/><rect class="cls-10" x="134.69" y="20.94" width="19.6" height="66.34" transform="translate(288.97 108.23) rotate(-180)"/><rect class="cls-1" x="97.99" y="44.65" width="19.6" height="42.63" transform="translate(215.57 131.94) rotate(-180)"/><path class="cls-7" d="m22.8,87.28c-.02-.31-.05-.62-.05-.94,0-10.9,8.86-19.76,19.76-19.76s19.76,8.86,19.76,19.76c0,.32-.03.63-.05.94h19.61c0-.31.02-.63.02-.94,0-21.7-17.65-39.35-39.35-39.35S3.17,64.64,3.17,86.34c0,.32.01.63.02.94h19.61Z"/><path class="cls-9" d="m227.16,87.26c5.27-13.1,18.08-22.39,33.04-22.39s27.78,9.29,33.04,22.39h20.53c-5.94-24.07-27.7-41.98-53.57-41.98s-47.63,17.91-53.57,41.98h20.53Z"/><g><path class="cls-4" d="m18.45,209.35H6.02l-2.57,5.85H0l10.6-23.4h3.31l10.63,23.4h-3.51l-2.57-5.85Zm-1.17-2.67l-5.05-11.47-5.05,11.47h10.1Z"/><path class="cls-4" d="m27.55,190.4h3.21v24.8h-3.21v-24.8Z"/><path class="cls-4" d="m36.92,193.48c-.41-.4-.62-.89-.62-1.47s.21-1.08.62-1.49c.41-.41.93-.62,1.55-.62s1.14.19,1.55.59c.41.39.62.87.62,1.45s-.21,1.11-.62,1.52c-.41.41-.93.62-1.55.62s-1.14-.2-1.55-.6Zm-.05,4.01h3.21v17.72h-3.21v-17.72Z"/><path class="cls-4" d="m63.15,197.49v15.31c0,3.1-.77,5.39-2.31,6.87-1.54,1.48-3.83,2.22-6.89,2.22-1.67,0-3.27-.23-4.78-.69-1.52-.46-2.74-1.11-3.68-1.95l1.54-2.47c.82.71,1.84,1.28,3.06,1.69,1.21.41,2.47.62,3.76.62,2.07,0,3.6-.49,4.6-1.47.99-.98,1.49-2.47,1.49-4.48v-1.4c-.76.91-1.69,1.6-2.79,2.06-1.1.46-2.3.69-3.59.69-1.69,0-3.23-.36-4.6-1.09s-2.45-1.74-3.23-3.04c-.78-1.3-1.17-2.79-1.17-4.46s.39-3.16,1.17-4.46,1.86-2.31,3.23-3.03c1.37-.71,2.9-1.07,4.6-1.07,1.34,0,2.58.25,3.73.74,1.15.49,2.09,1.22,2.82,2.17v-2.74h3.04Zm-6.1,13.44c.92-.49,1.65-1.18,2.17-2.06.52-.88.79-1.88.79-2.99,0-1.72-.57-3.1-1.7-4.16-1.14-1.06-2.6-1.59-4.38-1.59s-3.28.53-4.41,1.59c-1.14,1.06-1.7,2.45-1.7,4.16,0,1.11.26,2.11.79,2.99s1.25,1.57,2.17,2.06c.92.49,1.98.74,3.16.74s2.2-.24,3.13-.74Z"/><path class="cls-4" d="m84.09,199.28c1.33,1.3,1.99,3.22,1.99,5.73v10.2h-3.21v-9.83c0-1.72-.41-3.01-1.24-3.88s-2.01-1.3-3.54-1.3c-1.74,0-3.11.51-4.11,1.52-1,1.01-1.5,2.47-1.5,4.36v9.13h-3.21v-17.72h3.08v2.67c.65-.91,1.52-1.62,2.62-2.11,1.1-.49,2.36-.74,3.76-.74,2.25,0,4.04.65,5.37,1.96Z"/><path class="cls-4" d="m92.08,193.48c-.41-.4-.62-.89-.62-1.47s.21-1.08.62-1.49c.41-.41.93-.62,1.55-.62s1.14.19,1.55.59c.41.39.62.87.62,1.45s-.21,1.11-.62,1.52c-.41.41-.93.62-1.55.62s-1.14-.2-1.55-.6Zm-.05,4.01h3.21v17.72h-3.21v-17.72Z"/><path class="cls-4" d="m116.18,199.28c1.33,1.3,1.99,3.22,1.99,5.73v10.2h-3.21v-9.83c0-1.72-.41-3.01-1.24-3.88s-2.01-1.3-3.54-1.3c-1.74,0-3.11.51-4.11,1.52-1,1.01-1.5,2.47-1.5,4.36v9.13h-3.21v-17.72h3.08v2.67c.65-.91,1.52-1.62,2.62-2.11,1.1-.49,2.36-.74,3.76-.74,2.25,0,4.04.65,5.37,1.96Z"/><path class="cls-4" d="m141.17,197.49v15.31c0,3.1-.77,5.39-2.31,6.87-1.54,1.48-3.83,2.22-6.89,2.22-1.67,0-3.27-.23-4.78-.69-1.52-.46-2.74-1.11-3.68-1.95l1.54-2.47c.82.71,1.84,1.28,3.06,1.69,1.21.41,2.47.62,3.76.62,2.07,0,3.6-.49,4.6-1.47.99-.98,1.49-2.47,1.49-4.48v-1.4c-.76.91-1.69,1.6-2.79,2.06-1.1.46-2.3.69-3.59.69-1.69,0-3.23-.36-4.6-1.09s-2.45-1.74-3.23-3.04c-.78-1.3-1.17-2.79-1.17-4.46s.39-3.16,1.17-4.46,1.86-2.31,3.23-3.03c1.37-.71,2.9-1.07,4.6-1.07,1.34,0,2.58.25,3.73.74,1.15.49,2.09,1.22,2.82,2.17v-2.74h3.04Zm-6.1,13.44c.92-.49,1.65-1.18,2.17-2.06.52-.88.79-1.88.79-2.99,0-1.72-.57-3.1-1.7-4.16-1.14-1.06-2.6-1.59-4.38-1.59s-3.28.53-4.41,1.59c-1.14,1.06-1.7,2.45-1.7,4.16,0,1.11.26,2.11.79,2.99s1.25,1.57,2.17,2.06c.92.49,1.98.74,3.16.74s2.2-.24,3.13-.74Z"/><path class="cls-4" d="m159.89,195.95v1.54h5.15v2.64h-5.08v15.08h-3.21v-15.08h-3.01v-2.64h3.01v-1.57c0-1.76.51-3.15,1.54-4.18s2.46-1.54,4.31-1.54c.71,0,1.38.09,2.01.27.62.18,1.16.43,1.6.77l-.97,2.44c-.74-.56-1.56-.84-2.47-.84-1.92,0-2.87,1.04-2.87,3.11Zm10.92-2.47c-.41-.4-.62-.89-.62-1.47s.21-1.08.62-1.49c.41-.41.93-.62,1.55-.62s1.14.19,1.55.59c.41.39.62.87.62,1.45s-.21,1.11-.62,1.52c-.41.41-.93.62-1.55.62s-1.14-.2-1.55-.6Zm-.05,4.01h3.21v17.72h-3.21v-17.72Z"/><path class="cls-4" d="m194.91,199.28c1.33,1.3,1.99,3.22,1.99,5.73v10.2h-3.21v-9.83c0-1.72-.41-3.01-1.24-3.88s-2.01-1.3-3.54-1.3c-1.74,0-3.11.51-4.11,1.52-1,1.01-1.5,2.47-1.5,4.36v9.13h-3.21v-17.72h3.08v2.67c.65-.91,1.52-1.62,2.62-2.11,1.1-.49,2.36-.74,3.76-.74,2.25,0,4.04.65,5.37,1.96Z"/><path class="cls-4" d="m214.94,199.12c1.3,1.2,1.96,3,1.96,5.38v10.7h-3.04v-2.34c-.53.83-1.3,1.45-2.29,1.89-.99.43-2.17.65-3.53.65-1.98,0-3.57-.48-4.76-1.44s-1.79-2.22-1.79-3.78.57-2.81,1.7-3.76c1.14-.95,2.94-1.42,5.42-1.42h5.08v-.63c0-1.38-.4-2.44-1.2-3.18-.8-.74-1.98-1.1-3.54-1.1-1.05,0-2.07.17-3.08.52-1,.34-1.85.81-2.54,1.39l-1.34-2.41c.91-.74,2.01-1.3,3.28-1.69,1.27-.39,2.62-.59,4.04-.59,2.45,0,4.33.6,5.63,1.8Zm-3.19,12.99c.89-.55,1.54-1.32,1.94-2.32v-2.47h-4.95c-2.72,0-4.08.91-4.08,2.74,0,.89.35,1.59,1.04,2.11.69.51,1.65.77,2.87.77s2.28-.27,3.18-.82Z"/><path class="cls-4" d="m237.67,199.28c1.33,1.3,1.99,3.22,1.99,5.73v10.2h-3.21v-9.83c0-1.72-.41-3.01-1.24-3.88s-2.01-1.3-3.54-1.3c-1.74,0-3.11.51-4.11,1.52-1,1.01-1.5,2.47-1.5,4.36v9.13h-3.21v-17.72h3.08v2.67c.65-.91,1.52-1.62,2.62-2.11,1.1-.49,2.36-.74,3.76-.74,2.25,0,4.04.65,5.37,1.96Z"/><path class="cls-4" d="m248.6,214.24c-1.42-.78-2.52-1.86-3.33-3.23-.8-1.37-1.2-2.93-1.2-4.66s.4-3.29,1.2-4.66c.8-1.37,1.91-2.44,3.33-3.21,1.41-.77,3.03-1.15,4.83-1.15,1.6,0,3.04.32,4.3.97,1.26.65,2.23,1.58,2.93,2.81l-2.44,1.57c-.56-.85-1.25-1.48-2.07-1.91-.83-.42-1.74-.64-2.74-.64-1.16,0-2.2.26-3.13.77-.93.51-1.65,1.24-2.17,2.19-.52.95-.79,2.03-.79,3.26s.26,2.35.79,3.29c.52.95,1.25,1.68,2.17,2.19.92.51,1.97.77,3.13.77,1,0,1.92-.21,2.74-.63.82-.42,1.51-1.06,2.07-1.91l2.44,1.54c-.69,1.23-1.67,2.17-2.93,2.82-1.26.66-2.69.99-4.3.99-1.8,0-3.42-.39-4.83-1.17Z"/><path class="cls-4" d="m280.47,207.42h-14.37c.2,1.56.89,2.81,2.06,3.76,1.17.95,2.62,1.42,4.36,1.42,2.12,0,3.82-.71,5.12-2.14l1.77,2.07c-.8.94-1.8,1.65-2.99,2.14-1.19.49-2.52.74-4,.74-1.87,0-3.53-.39-4.98-1.15-1.45-.77-2.57-1.84-3.36-3.23-.79-1.38-1.19-2.94-1.19-4.68s.38-3.26,1.15-4.65c.77-1.38,1.83-2.46,3.18-3.23,1.35-.77,2.87-1.15,4.56-1.15s3.2.38,4.53,1.15,2.36,1.85,3.11,3.23c.75,1.38,1.12,2.96,1.12,4.75,0,.25-.02.57-.07.97Zm-12.55-5.98c-1.04.94-1.64,2.16-1.82,3.68h11.37c-.18-1.49-.79-2.71-1.82-3.66-1.04-.95-2.32-1.42-3.86-1.42s-2.83.47-3.86,1.4Z"/><path class="cls-4" d="m320.79,197.49l-6.62,17.72h-3.08l-5.12-13.44-5.18,13.44h-3.08l-6.59-17.72h3.04l5.15,14.11,5.35-14.11h2.71l5.25,14.17,5.28-14.17h2.88Z"/><path class="cls-4" d="m324.08,193.48c-.41-.4-.62-.89-.62-1.47s.21-1.08.62-1.49c.41-.41.93-.62,1.55-.62s1.14.19,1.55.59c.41.39.62.87.62,1.45s-.21,1.11-.62,1.52c-.41.41-.93.62-1.55.62s-1.14-.2-1.55-.6Zm-.05,4.01h3.21v17.72h-3.21v-17.72Z"/><path class="cls-4" d="m343.32,214.17c-.47.4-1.05.71-1.74.92s-1.4.32-2.14.32c-1.78,0-3.17-.48-4.15-1.44-.98-.96-1.47-2.33-1.47-4.11v-9.73h-3.01v-2.64h3.01v-3.88h3.21v3.88h5.08v2.64h-5.08v9.6c0,.96.24,1.69.72,2.21.48.51,1.16.77,2.06.77.98,0,1.82-.28,2.51-.84l1,2.31Z"/><path class="cls-4" d="m362.03,199.28c1.33,1.3,1.99,3.22,1.99,5.73v10.2h-3.21v-9.83c0-1.72-.41-3.01-1.24-3.88-.83-.87-2.01-1.3-3.54-1.3-1.74,0-3.11.51-4.11,1.52-1,1.01-1.51,2.47-1.51,4.36v9.13h-3.21v-24.8h3.21v9.59c.67-.85,1.54-1.5,2.63-1.97,1.08-.47,2.29-.7,3.63-.7,2.25,0,4.04.65,5.36,1.96Z"/><path class="cls-4" d="m379.86,214.82c-1.34-.39-2.39-.89-3.14-1.49l1.34-2.54c.78.56,1.73,1,2.84,1.34,1.12.33,2.24.5,3.38.5,2.81,0,4.21-.8,4.21-2.41,0-.54-.19-.96-.57-1.27s-.85-.54-1.42-.69c-.57-.14-1.38-.31-2.42-.48-1.43-.22-2.59-.48-3.49-.77s-1.68-.78-2.32-1.47-.97-1.66-.97-2.91c0-1.6.67-2.89,2.01-3.86,1.34-.97,3.13-1.45,5.38-1.45,1.18,0,2.36.14,3.54.43,1.18.29,2.15.68,2.91,1.17l-1.37,2.54c-1.45-.93-3.15-1.4-5.11-1.4-1.36,0-2.4.22-3.11.67-.71.45-1.07,1.04-1.07,1.77,0,.58.2,1.04.6,1.37.4.33.9.58,1.49.74.59.16,1.42.33,2.49.53,1.43.25,2.58.51,3.46.79.88.28,1.63.75,2.26,1.42s.94,1.6.94,2.81c0,1.6-.69,2.88-2.06,3.83-1.37.95-3.24,1.42-5.6,1.42-1.45,0-2.84-.2-4.18-.59Z"/><path class="cls-4" d="m412.22,197.49v17.72h-3.04v-2.67c-.65.91-1.5,1.62-2.56,2.12-1.06.5-2.21.75-3.46.75-2.36,0-4.22-.65-5.58-1.96s-2.04-3.23-2.04-5.77v-10.2h3.21v9.83c0,1.72.41,3.02,1.24,3.9.83.88,2.01,1.32,3.54,1.32,1.69,0,3.03-.51,4.01-1.54.98-1.02,1.47-2.47,1.47-4.35v-9.16h3.21Z"/><path class="cls-4" d="m419.24,214.82c-1.34-.39-2.39-.89-3.14-1.49l1.34-2.54c.78.56,1.73,1,2.84,1.34,1.12.33,2.24.5,3.38.5,2.81,0,4.21-.8,4.21-2.41,0-.54-.19-.96-.57-1.27s-.85-.54-1.42-.69c-.57-.14-1.38-.31-2.42-.48-1.43-.22-2.59-.48-3.49-.77s-1.68-.78-2.32-1.47-.97-1.66-.97-2.91c0-1.6.67-2.89,2.01-3.86,1.34-.97,3.13-1.45,5.38-1.45,1.18,0,2.36.14,3.54.43,1.18.29,2.15.68,2.91,1.17l-1.37,2.54c-1.45-.93-3.15-1.4-5.11-1.4-1.36,0-2.4.22-3.11.67-.71.45-1.07,1.04-1.07,1.77,0,.58.2,1.04.6,1.37.4.33.9.58,1.49.74.59.16,1.42.33,2.49.53,1.43.25,2.58.51,3.46.79.88.28,1.63.75,2.26,1.42s.94,1.6.94,2.81c0,1.6-.69,2.88-2.06,3.83-1.37.95-3.24,1.42-5.6,1.42-1.45,0-2.84-.2-4.18-.59Z"/><path class="cls-4" d="m445.05,214.17c-.47.4-1.05.71-1.74.92s-1.4.32-2.14.32c-1.78,0-3.17-.48-4.15-1.44s-1.47-2.33-1.47-4.11v-9.73h-3.01v-2.64h3.01v-3.88h3.21v3.88h5.08v2.64h-5.08v9.6c0,.96.24,1.69.72,2.21.48.51,1.16.77,2.06.77.98,0,1.82-.28,2.51-.84l1,2.31Z"/><path class="cls-4" d="m461.01,199.12c1.3,1.2,1.96,3,1.96,5.38v10.7h-3.04v-2.34c-.54.83-1.3,1.45-2.29,1.89-.99.43-2.17.65-3.53.65-1.98,0-3.57-.48-4.76-1.44-1.19-.96-1.79-2.22-1.79-3.78s.57-2.81,1.71-3.76c1.14-.95,2.94-1.42,5.42-1.42h5.08v-.63c0-1.38-.4-2.44-1.2-3.18-.8-.74-1.98-1.1-3.54-1.1-1.05,0-2.07.17-3.08.52-1,.34-1.85.81-2.54,1.39l-1.34-2.41c.91-.74,2.01-1.3,3.28-1.69,1.27-.39,2.62-.59,4.04-.59,2.45,0,4.33.6,5.63,1.8Zm-3.19,12.99c.89-.55,1.54-1.32,1.94-2.32v-2.47h-4.95c-2.72,0-4.08.91-4.08,2.74,0,.89.34,1.59,1.04,2.11.69.51,1.65.77,2.87.77s2.28-.27,3.18-.82Z"/><path class="cls-4" d="m468.97,193.48c-.41-.4-.62-.89-.62-1.47s.21-1.08.62-1.49c.41-.41.93-.62,1.55-.62s1.14.19,1.56.59c.41.39.62.87.62,1.45s-.21,1.11-.62,1.52-.93.62-1.56.62-1.14-.2-1.55-.6Zm-.05,4.01h3.21v17.72h-3.21v-17.72Z"/><path class="cls-4" d="m493.07,199.28c1.33,1.3,1.99,3.22,1.99,5.73v10.2h-3.21v-9.83c0-1.72-.41-3.01-1.24-3.88-.83-.87-2.01-1.3-3.54-1.3-1.74,0-3.11.51-4.11,1.52-1,1.01-1.5,2.47-1.5,4.36v9.13h-3.21v-17.72h3.08v2.67c.65-.91,1.52-1.62,2.62-2.11,1.1-.49,2.36-.74,3.76-.74,2.25,0,4.04.65,5.37,1.96Z"/><path class="cls-4" d="m513.09,199.12c1.3,1.2,1.96,3,1.96,5.38v10.7h-3.04v-2.34c-.54.83-1.3,1.45-2.29,1.89-.99.43-2.17.65-3.53.65-1.98,0-3.57-.48-4.76-1.44-1.19-.96-1.79-2.22-1.79-3.78s.57-2.81,1.71-3.76c1.14-.95,2.94-1.42,5.42-1.42h5.08v-.63c0-1.38-.4-2.44-1.2-3.18-.8-.74-1.98-1.1-3.54-1.1-1.05,0-2.07.17-3.08.52-1,.34-1.85.81-2.54,1.39l-1.34-2.41c.91-.74,2.01-1.3,3.28-1.69,1.27-.39,2.62-.59,4.04-.59,2.45,0,4.33.6,5.63,1.8Zm-3.19,12.99c.89-.55,1.54-1.32,1.94-2.32v-2.47h-4.95c-2.72,0-4.08.91-4.08,2.74,0,.89.34,1.59,1.04,2.11.69.51,1.65.77,2.87.77s2.28-.27,3.18-.82Z"/><path class="cls-4" d="m535.01,198.46c1.36.76,2.42,1.82,3.19,3.18.77,1.36,1.15,2.93,1.15,4.71s-.38,3.36-1.15,4.73c-.77,1.37-1.83,2.44-3.19,3.19-1.36.76-2.9,1.14-4.61,1.14-1.32,0-2.52-.26-3.61-.77s-1.99-1.26-2.71-2.24v2.81h-3.08v-24.8h3.21v9.76c.71-.94,1.6-1.64,2.67-2.12,1.07-.48,2.24-.72,3.51-.72,1.72,0,3.25.38,4.61,1.14Zm-1.82,13.36c.9-.52,1.62-1.26,2.14-2.21.52-.95.79-2.03.79-3.26s-.26-2.31-.79-3.26c-.52-.95-1.24-1.68-2.14-2.19-.9-.51-1.92-.77-3.06-.77s-2.13.26-3.04.77c-.91.51-1.63,1.24-2.14,2.19-.51.95-.77,2.03-.77,3.26s.26,2.31.77,3.26c.51.95,1.23,1.68,2.14,2.21.91.52,1.93.78,3.04.78s2.16-.26,3.06-.78Z"/><path class="cls-4" d="m543.85,193.48c-.41-.4-.62-.89-.62-1.47s.21-1.08.62-1.49c.41-.41.93-.62,1.55-.62s1.14.19,1.56.59c.41.39.62.87.62,1.45s-.21,1.11-.62,1.52-.93.62-1.56.62-1.14-.2-1.55-.6Zm-.05,4.01h3.21v17.72h-3.21v-17.72Z"/><path class="cls-4" d="m553.13,190.4h3.21v24.8h-3.21v-24.8Z"/><path class="cls-4" d="m562.5,193.48c-.41-.4-.62-.89-.62-1.47s.21-1.08.62-1.49c.41-.41.93-.62,1.55-.62s1.14.19,1.56.59c.41.39.62.87.62,1.45s-.21,1.11-.62,1.52-.93.62-1.56.62-1.14-.2-1.55-.6Zm-.05,4.01h3.21v17.72h-3.21v-17.72Z"/><path class="cls-4" d="m581.74,214.17c-.47.4-1.05.71-1.74.92s-1.4.32-2.14.32c-1.78,0-3.17-.48-4.15-1.44s-1.47-2.33-1.47-4.11v-9.73h-3.01v-2.64h3.01v-3.88h3.21v3.88h5.08v2.64h-5.08v9.6c0,.96.24,1.69.72,2.21.48.51,1.16.77,2.06.77.98,0,1.82-.28,2.51-.84l1,2.31Z"/><path class="cls-4" d="m600.96,197.49l-8.59,19.49c-.76,1.8-1.64,3.08-2.66,3.81-1.01.74-2.24,1.1-3.66,1.1-.87,0-1.71-.14-2.52-.42-.81-.28-1.49-.69-2.02-1.22l1.37-2.41c.91.87,1.97,1.3,3.18,1.3.78,0,1.43-.21,1.96-.62s1-1.12,1.42-2.12l.57-1.24-7.82-17.68h3.34l6.18,14.17,6.12-14.17h3.14Z"/></g><rect class="cls-4" x="171.39" y="0" width="19.6" height="87.28" transform="translate(362.38 87.28) rotate(-180)"/><rect class="cls-2" x="134.69" y="20.94" width="19.6" height="66.34" transform="translate(288.97 108.23) rotate(-180)"/><rect class="cls-3" x="97.99" y="44.65" width="19.6" height="42.63" transform="translate(215.57 131.94) rotate(-180)"/><path class="cls-5" d="m22.8,87.28c-.02-.31-.05-.62-.05-.94,0-10.9,8.86-19.76,19.76-19.76s19.76,8.86,19.76,19.76c0,.32-.03.63-.05.94h19.61c0-.31.02-.63.02-.94,0-21.7-17.65-39.35-39.35-39.35S3.17,64.64,3.17,86.34c0,.32.01.63.02.94h19.61Z"/><path class="cls-6" d="m227.16,87.26c5.27-13.1,18.08-22.39,33.04-22.39s27.78,9.29,33.04,22.39h20.53c-5.94-24.07-27.7-41.98-53.57-41.98s-47.63,17.91-53.57,41.98h20.53Z"/><g><path class="cls-11" d="m11.76,158.32h9.4c3.26.03,5.93-2.6,5.95-5.86,0,0,0,0,0,0v-1.88c.12-3.24-2.4-5.97-5.64-6.1h-9.71v13.84Zm0-22.37h9.6c3.22-.05,5.79-2.69,5.76-5.91v-.57c.11-3.26-2.45-5.99-5.71-6.09,0,0-.02,0-.02,0h-9.62v12.57Zm24.74,17.17c0,7.81-6.48,13.75-15.21,13.75H2.35v-52.05h18.94c8.73,0,15.21,5.94,15.21,13.76v.13c.24,4.69-2.18,9.12-6.25,11.45,4.03,2.38,6.42,6.78,6.25,11.45v1.5Z"/><path class="cls-11" d="m81.44,114.82v37.77c.1,8.2-6.46,14.94-14.66,15.05h-4.24c-8.19.2-14.99-6.27-15.2-14.45,0,0,0-.01,0-.02v-38.34h9.4v37.77c-.11,3.26,2.45,5.99,5.71,6.09,0,0,.02,0,.02,0h3.67c3.26.03,5.94-2.59,5.97-5.85v-38.01h9.32Z"/><path class="cls-11" d="m95.21,114.82h9.4v52.03h-9.4v-52.03Z"/><path class="cls-11" d="m118.39,166.85v-52.03h9.4v43.13h19.21v8.91h-28.62Z"/><path class="cls-11" d="m175.86,157.94c3.26.03,5.93-2.6,5.96-5.86v-22.25c.11-3.27-2.46-6-5.72-6.1,0,0-.01,0-.02,0h-9.62v34.21h9.39Zm-18.81-43.13h18.94c8.19-.19,15,6.29,15.2,14.48v22.57c.11,8.2-6.45,14.94-14.65,15.05,0,0,0,0-.01,0h-19.47v-52.1Z"/><path class="cls-11" d="m204.97,114.82h9.4v52.03h-9.4v-52.03Z"/><path class="cls-11" d="m258.64,166.85l-19.91-33.38-.43-2.23v35.61h-9.4v-52.03h8.27l19.91,33.39.43,2.23v-35.62h9.4v52.03h-8.27Z"/><path class="cls-11" d="m297.77,138.02h17.06v28.83h-3.65l-2.67-4.09c-2.51,3.13-6.33,4.91-10.34,4.83h-2.25c-8.19.22-15-6.25-15.21-14.43,0,0,0-.01,0-.02v-24.05c-.1-8.2,6.46-14.93,14.66-15.05h4.26c8.19-.19,15,6.29,15.2,14.48v3.22l-9.4.89v-3.55c.11-3.27-2.46-6-5.72-6.1,0,0-.01,0-.02,0h-3.67c-3.26-.03-5.93,2.6-5.96,5.86v23.73c-.11,3.26,2.45,5.99,5.71,6.09,0,0,.02,0,.02,0h3.72c3.26.03,5.94-2.59,5.97-5.85v-5.9h-7.67l-.04-8.91Z"/><path class="cls-11" d="m362.77,151.32c.02-2.24-.88-4.4-2.48-5.96-.77-.77-1.68-1.37-2.68-1.8-1.03-.44-2.14-.66-3.26-.65l-11.61.08.13,21.04,11.61-.08c1.12,0,2.23-.23,3.25-.69.99-.44,1.89-1.05,2.64-1.82,1.58-1.59,2.45-3.75,2.42-5.99l-.02-4.13Zm-.14-22.72c0-1.13-.23-2.26-.68-3.3-.87-2.02-2.47-3.62-4.49-4.49-1.03-.44-2.14-.66-3.26-.64l-11.61.08.12,18.22,11.61-.07c1.12,0,2.23-.23,3.25-.69.99-.45,1.88-1.09,2.63-1.88.76-.78,1.36-1.7,1.78-2.71.44-1.04.65-2.17.64-3.3v-1.22Zm3.89,31.93c-1.27,3.13-3.73,5.63-6.83,6.98-1.58.69-3.29,1.05-5.01,1.05l-16.52.1-.35-52.91,16.52-.1c1.72-.03,3.42.29,5.01.94,3.11,1.31,5.59,3.79,6.9,6.9.67,1.6,1.01,3.32,1.02,5.06v.51c.02,1.22-.14,2.43-.47,3.6-.31,1.12-.77,2.2-1.36,3.2-.6.98-1.32,1.89-2.14,2.69-.81.8-1.74,1.49-2.75,2.03,1.03.53,1.98,1.21,2.82,2,.83.8,1.56,1.71,2.17,2.69.61,1,1.09,2.07,1.42,3.2.33,1.17.51,2.38.53,3.6v3.39c.02,1.73-.3,3.45-.94,5.06"/><path class="cls-11" d="m403.89,128.29c0-1.14-.23-2.26-.68-3.3-.43-.99-1.04-1.91-1.79-2.69-.76-.77-1.67-1.39-2.66-1.81-1.03-.44-2.15-.65-3.27-.64l-11.64.08.13,21.25,11.65-.08c1.12,0,2.22-.23,3.24-.68.99-.45,1.88-1.09,2.62-1.88.76-.78,1.36-1.7,1.78-2.7.43-1.05.65-2.17.65-3.3l-.04-4.26Zm.87,39.88l-14.3-22.47h-6.44l.13,22.57h-4.7l-.35-52.91,16.57-.11c1.71-.01,3.41.32,4.98.99,4.84,2.05,7.97,6.81,7.95,12.06v4.29c.02,1.74-.3,3.46-.94,5.08-.63,1.55-1.56,2.97-2.73,4.17-1.16,1.19-2.54,2.15-4.05,2.82-1.57.69-3.27,1.05-4.98,1.05l14.3,22.5-5.44-.03Z"/><path class="cls-11" d="m422.9,168.1l-.35-52.91h4.7l.35,52.92h-4.7Z"/><path class="cls-11" d="m467.69,127.9c0-1.14-.23-2.26-.68-3.3-.87-2.01-2.47-3.62-4.49-4.49-1.03-.45-2.14-.67-3.26-.65l-11.61.07.27,43.84,11.61-.08c1.12,0,2.23-.23,3.25-.69.99-.44,1.89-1.05,2.64-1.82,1.58-1.59,2.45-3.74,2.42-5.98l-.16-26.89Zm3.91,31.97c-1.28,3.12-3.71,5.62-6.8,6.97-1.58.69-3.28,1.05-5,1.05l-16.53.1-.35-52.91,16.53-.1c1.71-.03,3.42.29,5,.94,3.11,1.3,5.58,3.78,6.88,6.89.68,1.6,1.03,3.31,1.04,5.05l.18,26.91c.02,1.73-.3,3.45-.94,5.06"/><path class="cls-11" d="m516.15,167.47h-1.5l-2.76-4.21c-1.09,1.5-2.5,2.76-4.12,3.67-1.66.91-3.52,1.39-5.41,1.39h-2.73c-1.71.03-3.42-.29-5-.94-4.81-2.02-7.93-6.73-7.93-11.94l-.19-28.42c-.05-5.2,3-9.94,7.77-12.03,1.58-.69,3.28-1.05,5-1.05h3.76c1.71-.03,3.4.29,4.98.94,3.07,1.32,5.51,3.77,6.82,6.84.69,1.6,1.04,3.32,1.03,5.06v2.14l-4.7.77v-2.88c0-1.14-.23-2.26-.69-3.3-.85-2.01-2.45-3.61-4.45-4.47-1.03-.43-2.14-.65-3.26-.64h-3.29c-1.12,0-2.23.24-3.25.69-2,.89-3.58,2.5-4.43,4.51-.43,1.05-.64,2.17-.62,3.3l.19,28.42c0,1.14.23,2.26.68,3.3.87,2.01,2.47,3.62,4.49,4.49,1.03.44,2.15.66,3.27.66h3.28c1.14.01,2.26-.22,3.3-.69.99-.45,1.88-1.09,2.63-1.88.75-.79,1.35-1.7,1.77-2.71.43-1.05.65-2.17.63-3.3l-.09-10.92-8.35.06v-4.53l13.04-.09.13,27.76Z"/><path class="cls-11" d="m531.1,167.37l-.35-52.91,29.37-.2v4.53l-24.68.16.12,19.66,19.99-.14v4.53l-19.98.14.12,19.63,24.68-.15v4.52l-29.26.22Z"/><path class="cls-11" d="m601.7,154.62c.02,1.74-.33,3.47-1.03,5.06-1.38,3.12-3.89,5.61-7.02,6.97-1.59.69-3.31,1.05-5.04,1.05h-3.76c-1.74.02-3.46-.31-5.06-.99-3.16-1.31-5.71-3.77-7.12-6.88-.73-1.59-1.11-3.31-1.11-5.06v-2.03l4.7-.81v2.89c0,1.14.25,2.27.73,3.3.95,2.03,2.63,3.64,4.7,4.49,1.06.43,2.19.65,3.34.65h3.28c1.14,0,2.26-.24,3.3-.69,2.06-.89,3.72-2.51,4.65-4.55.47-1.04.7-2.16.7-3.3v-1.58c.04-1.58-.34-3.14-1.1-4.53-.72-1.2-1.68-2.24-2.82-3.06-1.23-.88-2.56-1.59-3.97-2.13-1.48-.57-2.98-1.16-4.53-1.74-1.54-.55-3.06-1.17-4.53-1.88-1.45-.69-2.78-1.58-3.97-2.65-1.2-1.1-2.16-2.43-2.82-3.91-.77-1.81-1.14-3.76-1.1-5.72v-1.12c-.04-5.2,3.01-9.93,7.78-12.03,1.58-.69,3.28-1.05,5-1.06h3.36c1.71-.02,3.41.31,4.98.99,3.09,1.31,5.55,3.78,6.86,6.87.69,1.6,1.03,3.32,1.03,5.06v1.37l-4.7.81v-2.14c0-1.14-.23-2.26-.69-3.3-.85-2-2.45-3.6-4.45-4.46-1.03-.44-2.14-.66-3.25-.65h-2.92c-1.12,0-2.23.24-3.25.69-.99.44-1.88,1.06-2.64,1.83-.76.77-1.37,1.68-1.79,2.68-.43,1.05-.64,2.17-.62,3.3v1.01c-.04,1.49.33,2.97,1.07,4.27.73,1.17,1.69,2.17,2.82,2.94,1.23.86,2.56,1.57,3.97,2.11,1.48.6,2.99,1.19,4.55,1.81s3.08,1.3,4.54,2.04c1.45.71,2.78,1.64,3.96,2.74,1.2,1.13,2.16,2.48,2.82,3.99.76,1.82,1.13,3.78,1.1,5.75l.06,1.6Z"/></g></svg>