<?xml version="1.0" encoding="UTF-8"?><svg id="Layer_2" xmlns="http://www.w3.org/2000/svg" xmlns:xlink="http://www.w3.org/1999/xlink" viewBox="0 0 407.67 120.35"><defs><style>.cls-1{fill:#333;}.cls-2{fill:url(#New_Gradient_Swatch_1);}.cls-3{fill:url(#New_Gradient_Swatch_1-2);}.cls-4{fill:url(#linear-gradient);}</style><linearGradient id="New_Gradient_Swatch_1" x1="46.97" y1="103.4" x2="60.03" y2="84.13" gradientUnits="userSpaceOnUse"><stop offset="0" stop-color="#007fb3"/><stop offset="1" stop-color="#19cc76"/></linearGradient><linearGradient id="New_Gradient_Swatch_1-2" x1="17.82" y1="76.41" x2="50.64" y2="76.41" xlink:href="#New_Gradient_Swatch_1"/><linearGradient id="linear-gradient" x1="19.16" y1="-5.81" x2="52.73" y2="116.89" gradientUnits="userSpaceOnUse"><stop offset="0" stop-color="#007fb3"/><stop offset=".43" stop-color="#0081b1"/><stop offset=".61" stop-color="#0288ab"/><stop offset=".74" stop-color="#0694a1"/><stop offset=".86" stop-color="#0ca693"/><stop offset=".95" stop-color="#14bc82"/><stop offset="1" stop-color="#19cc76"/></linearGradient></defs><g id="Layer_1-2"><g><g><path class="cls-1" d="M132.95,103.54c-7.4,0-13.89-1.63-19.47-4.88-5.57-3.25-9.91-7.97-13-14.16-3.09-6.18-4.64-13.63-4.64-22.33s1.63-16.05,4.88-22.27c3.25-6.22,7.85-11,13.79-14.34,5.94-3.34,12.89-5,20.87-5,8.71,0,15.74,1.61,21.11,4.82,5.37,3.22,9.64,8.2,12.81,14.95l-15.62,6.71c-1.3-4.31-3.52-7.51-6.65-9.58-3.13-2.07-6.98-3.11-11.53-3.11s-8.5,1.08-11.84,3.23c-3.34,2.16-5.9,5.29-7.69,9.4-1.79,4.11-2.68,9.13-2.68,15.07s.85,11.25,2.56,15.44c1.71,4.19,4.25,7.32,7.63,9.4,3.38,2.07,7.54,3.11,12.51,3.11,2.69,0,5.19-.32,7.51-.98,2.32-.65,4.33-1.63,6.04-2.93,1.71-1.3,3.05-2.97,4.03-5,.98-2.03,1.46-4.39,1.46-7.08v-1.83h-21.11v-12.33h35.64v42.47h-11.84l-1.22-17.57,2.93,2.07c-1.79,5.37-4.94,9.5-9.46,12.39-4.51,2.89-10.19,4.33-17.02,4.33Z"/><path class="cls-1" d="M217.65,21.77c12.61,0,22.37,3.48,29.29,10.43,6.91,6.96,10.37,16.9,10.37,29.84s-3.46,22.78-10.37,29.78c-6.92,7-16.68,10.5-29.29,10.5h-31.12V21.77h31.12Zm-.85,67.12c7.65,0,13.4-2.3,17.27-6.9,3.86-4.6,5.8-11.25,5.8-19.95s-1.93-15.36-5.8-19.95c-3.87-4.6-9.62-6.9-17.27-6.9h-13.42v53.7h13.42Z"/><path class="cls-1" d="M332.98,35.32h-43.45v20.38h34.29v13.67h-34.29v32.95h-16.84V21.77h60.29v13.55Z"/><path class="cls-1" d="M407.67,102.32h-17.45l-6.71-19.65h-30.88l-6.71,19.65h-17.21l29.41-80.55h20.14l29.41,80.55Zm-51.26-32.1h23.31l-11.72-35.15-11.59,35.15Z"/></g><g><path class="cls-2" d="M60.18,68.29h0v10.02h0c-8.63,0-15.65,7.02-15.65,15.65,0,8.63,7.02,15.65,15.65,15.65v10.02c-14.15,0-25.67-11.52-25.67-25.67,0-14.15,11.52-25.67,25.67-25.67Z"/><path class="cls-3" d="M60.18,119.63c-23.83,0-43.22-19.39-43.22-43.22,0-23.83,19.39-43.22,43.22-43.22v10.02c-18.3,0-33.2,14.89-33.2,33.2,0,18.3,14.89,33.2,33.2,33.2v10.02Z"/><path class="cls-4" d="M60.18,109.61c-27.26,0-49.44-22.18-49.44-49.44S32.92,10.74,60.18,10.74V0C26.99,0,0,26.99,0,60.18s26.99,60.18,60.18,60.18v-10.74Z"/></g></g></g></svg>