<?xml version="1.0" encoding="UTF-8"?> <!-- Generator: Adobe Illustrator 16.0.0, SVG Export Plug-In . SVG Version: 6.00 Build 0) --> <svg xmlns="http://www.w3.org/2000/svg" xmlns:xlink="http://www.w3.org/1999/xlink" version="1.1" id="Calque_1" x="0px" y="0px" width="600px" height="230px" viewBox="-2.36 299.445 600 230" xml:space="preserve"> <g> <path fill="#243447" d="M482.039,497.533c0,0-0.025-2.499-0.008-4.121c-1.883,2.768-4.295,4.156-7.219,4.156 c-2.951,0-5.25-0.824-6.906-2.481c-1.658-1.657-2.482-3.983-2.482-6.994c0-3.314,1.119-5.935,3.367-7.887 c2.246-1.943,5.326-2.941,9.24-2.977h3.914v-3.462c0-1.943-0.436-3.332-1.293-4.156c-0.859-0.824-2.178-1.231-3.939-1.231 c-1.605,0-2.906,0.477-3.914,1.432c-1.006,0.954-1.5,2.16-1.5,3.626h-5.328c0-1.665,0.494-3.253,1.475-4.771 s2.309-2.707,3.975-3.566s3.521-1.293,5.57-1.293c3.332,0,5.865,0.824,7.602,2.481c1.734,1.657,2.619,4.069,2.662,7.81 l0.045,23.444h-5.26V497.533z M475.619,492.718c1.301,0,2.551-0.364,3.73-1.085c1.18-0.72,2.049-1.622,2.586-2.707v-7.766h-3.01 c-2.525,0.044-4.521,0.607-5.988,1.701c-1.467,1.093-2.195,2.62-2.195,4.59c0,1.848,0.373,3.185,1.111,4.018 C472.599,492.302,473.857,492.718,475.619,492.718z"></path> <g> <path fill="#243447" d="M337.197,366.375c0-2.187-0.59-3.861-1.777-5.024c-1.18-1.163-3.324-2.299-6.412-3.401 c-3.09-1.102-5.449-2.265-7.09-3.479c-1.639-1.214-2.863-2.594-3.67-4.156c-0.807-1.562-1.215-3.332-1.215-5.345 c0-3.471,1.154-6.325,3.479-8.573c2.318-2.247,5.355-3.366,9.104-3.366c2.568,0,4.857,0.572,6.863,1.718 c2.004,1.146,3.549,2.742,4.633,4.781c1.084,2.048,1.623,4.287,1.623,6.733h-5.537c0-2.707-0.65-4.807-1.951-6.291 c-1.303-1.484-3.176-2.23-5.631-2.23c-2.23,0-3.949,0.625-5.172,1.865c-1.223,1.25-1.84,2.994-1.84,5.25 c0,1.848,0.66,3.393,1.986,4.642c1.328,1.25,3.367,2.36,6.145,3.349c4.313,1.423,7.4,3.185,9.258,5.267 c1.857,2.091,2.785,4.815,2.785,8.182c0,3.549-1.154,6.395-3.463,8.529c-2.307,2.134-5.447,3.202-9.422,3.202 c-2.551,0-4.902-0.555-7.055-1.674c-2.16-1.111-3.852-2.681-5.084-4.694s-1.848-4.33-1.848-6.941h5.535 c0,2.707,0.754,4.815,2.273,6.316c1.518,1.501,3.574,2.256,6.186,2.256c2.43,0,4.252-0.625,5.477-1.866 C336.582,370.219,337.197,368.518,337.197,366.375z"></path> <path fill="#243447" d="M365.849,374.592c-1.762,2.308-4.348,3.462-7.732,3.462c-2.949,0-5.18-1.015-6.68-3.054 c-1.51-2.039-2.266-4.998-2.291-8.894v-21.224h5.293v20.825c0,5.076,1.527,7.609,4.572,7.609c3.229,0,5.457-1.449,6.682-4.33 v-24.104h5.326v33.128h-5.17V374.592z"></path> <path fill="#243447" d="M394.855,369.108c0-1.146-0.434-2.126-1.293-2.95s-2.525-1.788-4.998-2.89 c-2.871-1.18-4.893-2.195-6.064-3.037c-1.172-0.842-2.049-1.796-2.629-2.872c-0.582-1.076-0.877-2.352-0.877-3.835 c0-2.646,0.973-4.85,2.906-6.603c1.936-1.752,4.408-2.638,7.42-2.638c3.166,0,5.717,0.92,7.645,2.768 c1.926,1.848,2.889,4.217,2.889,7.106h-5.293c0-1.467-0.494-2.716-1.475-3.749s-2.238-1.553-3.766-1.553 c-1.563,0-2.795,0.408-3.688,1.215c-0.895,0.807-1.338,1.892-1.338,3.254c0,1.084,0.33,1.952,0.98,2.611 c0.652,0.66,2.223,1.527,4.713,2.612c3.957,1.544,6.637,3.063,8.061,4.538c1.422,1.475,2.135,3.349,2.135,5.623 c0,2.837-0.973,5.102-2.916,6.794c-1.943,1.701-4.555,2.542-7.826,2.542c-3.393,0-6.143-0.972-8.244-2.916 c-2.107-1.944-3.158-4.417-3.158-7.401h5.354c0.063,1.805,0.617,3.219,1.658,4.243c1.041,1.023,2.508,1.536,4.391,1.536 c1.762,0,3.105-0.399,4.035-1.189C394.396,371.521,394.855,370.453,394.855,369.108z"></path> <path fill="#243447" d="M414.083,332.9v11.393h4.902v4.304h-4.902v20.815c0,1.284,0.207,2.256,0.633,2.924 c0.426,0.659,1.145,0.998,2.17,0.998c0.701,0,1.414-0.122,2.133-0.365l-0.061,4.486c-1.205,0.399-2.438,0.599-3.705,0.599 c-2.107,0-3.713-0.755-4.814-2.256c-1.102-1.51-1.658-3.635-1.658-6.377v-20.824h-4.963v-4.304h4.963V332.9H414.083z"></path> <path fill="#243447" d="M441.388,378.019c0,0-0.025-2.499-0.008-4.121c-1.883,2.768-4.295,4.156-7.219,4.156 c-2.951,0-5.25-0.824-6.908-2.481c-1.656-1.657-2.48-3.982-2.48-6.993c0-3.315,1.119-5.935,3.367-7.888 c2.246-1.943,5.326-2.941,9.24-2.976h3.912v-3.462c0-1.943-0.434-3.332-1.293-4.156c-0.857-0.824-2.178-1.232-3.938-1.232 c-1.605,0-2.908,0.477-3.914,1.432s-1.502,2.161-1.502,3.627h-5.326c0-1.666,0.494-3.254,1.475-4.772 c0.98-1.518,2.309-2.707,3.975-3.566s3.521-1.293,5.57-1.293c3.332,0,5.865,0.824,7.6,2.481c1.736,1.657,2.621,4.07,2.664,7.809 l0.043,23.445h-5.258V378.019z M434.976,373.204c1.303,0,2.551-0.364,3.73-1.084c1.182-0.72,2.049-1.623,2.586-2.708v-7.766h-3.01 c-2.525,0.043-4.521,0.607-5.988,1.701c-1.465,1.093-2.193,2.621-2.193,4.59c0,1.849,0.373,3.185,1.109,4.018 C431.957,372.787,433.207,373.204,434.976,373.204z"></path> <path fill="#243447" d="M514.847,378.019c0,0-0.027-2.499-0.01-4.121c-1.883,2.768-4.295,4.156-7.219,4.156 c-2.951,0-5.25-0.824-6.906-2.481c-1.658-1.657-2.482-3.982-2.482-6.993c0-3.315,1.119-5.935,3.367-7.888 c2.246-1.943,5.328-2.941,9.24-2.976h3.914v-3.462c0-1.943-0.434-3.332-1.293-4.156s-2.178-1.232-3.939-1.232 c-1.605,0-2.906,0.477-3.914,1.432c-1.006,0.955-1.5,2.161-1.5,3.627h-5.328c0-1.666,0.494-3.254,1.475-4.772 c0.98-1.518,2.309-2.707,3.975-3.566s3.523-1.293,5.57-1.293c3.332,0,5.865,0.824,7.602,2.481c1.734,1.657,2.619,4.07,2.664,7.809 l0.043,23.445h-5.258V378.019z M508.435,373.204c1.301,0,2.551-0.364,3.73-1.084s2.047-1.623,2.586-2.708v-7.766h-3.012 c-2.525,0.043-4.52,0.607-5.986,1.701s-2.195,2.621-2.195,4.59c0,1.849,0.373,3.185,1.109,4.018 C505.416,372.787,506.664,373.204,508.435,373.204z"></path> <path fill="#243447" d="M461.007,336.249c0,0.902-0.252,1.657-0.756,2.256c-0.502,0.599-1.266,0.902-2.291,0.902 c-1.006,0-1.752-0.303-2.256-0.902c-0.502-0.599-0.754-1.354-0.754-2.256s0.252-1.666,0.754-2.291 c0.504-0.625,1.26-0.928,2.256-0.928c1.008,0,1.762,0.312,2.273,0.945C460.746,334.609,461.007,335.364,461.007,336.249z M460.582,378.019h-5.328v-33.137h5.328V378.019z"></path> <path fill="#243447" d="M474.109,344.882l0.018,3.523c2.064-2.75,4.703-4.122,7.912-4.122c5.762,0,8.678,3.844,8.756,11.523 v22.204h-5.293V356.05c0-2.551-0.426-4.356-1.275-5.432c-0.85-1.076-2.135-1.614-3.836-1.614c-1.326,0-2.516,0.442-3.564,1.328 c-1.051,0.885-1.9,2.039-2.543,3.462v24.226h-5.328v-33.137H474.109z"></path> <path fill="#243447" d="M551.888,362.73c0,5.076-0.912,8.903-2.742,11.462c-1.822,2.568-4.477,3.853-7.947,3.853 c-3.455,0-6.039-1.484-7.768-4.451l0.027,4.425h-5.146v-45.084h5.293v15.531c1.744-2.785,4.252-4.182,7.523-4.182 c3.566,0,6.248,1.267,8.035,3.792s2.689,6.343,2.707,11.436v3.219H551.888z M546.585,359.676c0-3.844-0.537-6.585-1.613-8.217 s-2.811-2.447-5.223-2.447c-2.752,0-4.799,1.484-6.145,4.451v15.479c1.328,2.924,3.393,4.391,6.195,4.391 c2.404,0,4.131-0.842,5.18-2.525c1.043-1.683,1.572-4.295,1.598-7.844v-3.289H546.585z"></path> <path fill="#243447" d="M564.435,378.019h-5.328v-45.084h5.328V378.019z"></path> <path fill="#243447" d="M584.453,378.054c-4.053,0-7.168-1.206-9.328-3.626c-2.17-2.421-3.271-5.961-3.314-10.638v-3.939 c0-4.851,1.059-8.66,3.176-11.419s5.066-4.139,8.859-4.139c3.809,0,6.662,1.215,8.545,3.644c1.883,2.43,2.848,6.213,2.891,11.35 v3.488h-18.178v0.738c0,3.488,0.658,6.03,1.969,7.609c1.311,1.588,3.201,2.377,5.676,2.377c1.561,0,2.941-0.295,4.139-0.885 c1.197-0.59,2.307-1.527,3.357-2.812l2.768,3.367C592.703,376.423,589.181,378.054,584.453,378.054z M583.845,348.856 c-2.205,0-3.846,0.755-4.904,2.273c-1.066,1.519-1.664,3.87-1.805,7.054h12.824v-0.72c-0.139-3.089-0.693-5.293-1.674-6.62 C587.316,349.524,585.832,348.856,583.845,348.856z"></path> </g> <g> <path fill="#243447" d="M405.181,437.499c0,0-0.027-2.499-0.01-4.122c-1.883,2.769-4.295,4.156-7.219,4.156 c-2.949,0-5.25-0.824-6.906-2.481c-1.658-1.657-2.482-3.982-2.482-6.993c0-3.314,1.119-5.936,3.367-7.888 c2.246-1.943,5.328-2.941,9.24-2.976h3.914v-3.462c0-1.944-0.434-3.332-1.293-4.156s-2.178-1.232-3.939-1.232 c-1.605,0-2.906,0.477-3.914,1.432c-1.006,0.955-1.5,2.161-1.5,3.627h-5.328c0-1.666,0.494-3.254,1.475-4.772 s2.309-2.707,3.975-3.566s3.523-1.293,5.57-1.293c3.332,0,5.865,0.824,7.602,2.481c1.734,1.657,2.619,4.069,2.664,7.809 l0.043,23.445h-5.258V437.499z M398.759,432.691c1.303,0,2.551-0.364,3.73-1.084c1.182-0.721,2.049-1.623,2.586-2.707v-7.767 h-3.01c-2.525,0.044-4.521,0.607-5.988,1.701c-1.465,1.093-2.195,2.62-2.195,4.59c0,1.849,0.373,3.185,1.111,4.018 C395.74,432.275,396.99,432.691,398.759,432.691z"></path> <path fill="#243447" d="M336.617,417.585h-14.803v19.922h-5.51v-44.39h22.811v4.729h-17.301v15.02h14.803V417.585z"></path> <path fill="#243447" d="M351.332,395.737c0,0.902-0.252,1.657-0.754,2.256c-0.504,0.599-1.268,0.902-2.291,0.902 c-1.006,0-1.752-0.304-2.256-0.902s-0.756-1.354-0.756-2.256s0.252-1.666,0.756-2.291c0.504-0.625,1.258-0.929,2.256-0.929 c1.006,0,1.762,0.313,2.273,0.946S351.332,394.852,351.332,395.737z M350.908,437.499h-5.328v-33.128h5.328V437.499z"></path> <path fill="#243447" d="M364.435,404.371l0.016,3.523c2.066-2.75,4.703-4.122,7.914-4.122c5.762,0,8.678,3.844,8.754,11.523 v22.204h-5.291v-21.97c0-2.551-0.426-4.355-1.277-5.432c-0.85-1.076-2.133-1.614-3.834-1.614c-1.328,0-2.516,0.442-3.566,1.328 c-1.051,0.885-1.9,2.039-2.543,3.462v24.226h-5.326v-33.128H364.435L364.435,404.371z"></path> <path fill="#243447" d="M423.783,404.371l0.018,3.523c2.066-2.75,4.703-4.122,7.914-4.122c5.762,0,8.676,3.844,8.754,11.523 v22.204h-5.293v-21.97c0-2.551-0.424-4.355-1.275-5.432c-0.85-1.076-2.135-1.614-3.834-1.614c-1.328,0-2.518,0.442-3.566,1.328 c-1.051,0.885-1.9,2.039-2.543,3.462v24.226h-5.328v-33.128H423.783L423.783,404.371z"></path> <path fill="#243447" d="M459.757,432.986c1.762,0,3.176-0.546,4.242-1.64c1.068-1.093,1.65-2.655,1.744-4.677h5.025 c-0.123,3.133-1.232,5.727-3.324,7.783c-2.1,2.057-4.66,3.089-7.688,3.089c-4.035,0-7.105-1.267-9.223-3.809 c-2.117-2.534-3.176-6.317-3.176-11.332v-3.584c0-4.911,1.049-8.65,3.158-11.21c2.107-2.56,5.18-3.835,9.205-3.835 c3.332,0,5.979,1.05,7.932,3.158c1.951,2.108,2.992,4.989,3.115,8.633h-5.025c-0.121-2.403-0.693-4.217-1.727-5.414 c-1.031-1.206-2.463-1.805-4.285-1.805c-2.369,0-4.121,0.781-5.268,2.334c-1.145,1.553-1.734,4.104-1.779,7.661v4.156 c0,3.836,0.564,6.543,1.701,8.122S457.31,432.986,459.757,432.986z"></path> <path fill="#243447" d="M488.556,437.533c-4.053,0-7.168-1.206-9.328-3.627c-2.17-2.421-3.271-5.961-3.314-10.638v-3.939 c0-4.85,1.059-8.659,3.176-11.418s5.066-4.139,8.859-4.139c3.809,0,6.664,1.215,8.547,3.644c1.883,2.43,2.846,6.213,2.889,11.35 v3.488h-18.17v0.755c0,3.487,0.66,6.03,1.971,7.609s3.201,2.377,5.674,2.377c1.563,0,2.941-0.295,4.139-0.885 s2.309-1.527,3.359-2.812l2.768,3.367C496.816,435.911,493.292,437.533,488.556,437.533z M487.957,408.345 c-2.203,0-3.844,0.755-4.902,2.273c-1.066,1.518-1.666,3.87-1.805,7.054h12.824v-0.72c-0.139-3.089-0.693-5.293-1.674-6.621 S489.945,408.345,487.957,408.345z"></path> </g> <path fill="#243447" d="M344.652,491.521l-0.965,1.206c-2.768,3.228-6.818,4.842-12.156,4.842c-4.736,0-8.451-1.57-11.148-4.712 c-2.699-3.141-4.078-7.574-4.139-13.318v-8.607c0-6.144,1.232-10.742,3.688-13.797c2.455-3.063,6.135-4.59,11.027-4.59 c4.174,0,7.438,1.163,9.797,3.479c2.359,2.317,3.652,5.632,3.896,9.943h-5.51c-0.227-2.724-0.98-4.858-2.273-6.395 c-1.293-1.535-3.254-2.299-5.883-2.299c-3.15,0-5.459,1.032-6.926,3.089c-1.465,2.057-2.229,5.345-2.289,9.856v8.938 c0,4.416,0.842,7.8,2.523,10.16c1.684,2.36,4.105,3.54,7.254,3.54c2.969,0,5.225-0.72,6.77-2.16l0.814-0.746v-10.065h-8.008v-4.729 h13.51v16.364H344.652z"></path> <path fill="#243447" d="M364.546,497.568c-4.051,0-7.166-1.206-9.326-3.627c-2.17-2.421-3.271-5.961-3.314-10.638v-3.939 c0-4.851,1.059-8.659,3.174-11.419c2.117-2.759,5.068-4.139,8.859-4.139c3.811,0,6.664,1.215,8.547,3.645s2.846,6.212,2.891,11.349 v3.488h-18.18v0.755c0,3.488,0.66,6.03,1.971,7.609c1.311,1.588,3.201,2.378,5.674,2.378c1.563,0,2.941-0.295,4.139-0.885 c1.197-0.591,2.309-1.527,3.359-2.812l2.768,3.366C372.798,495.937,369.275,497.568,364.546,497.568z M363.939,468.371 c-2.203,0-3.844,0.755-4.902,2.272c-1.066,1.519-1.666,3.87-1.805,7.055h12.824v-0.72c-0.139-3.089-0.693-5.293-1.674-6.621 C367.41,469.039,365.927,468.371,363.939,468.371z"></path> <path fill="#243447" d="M386.785,464.405l0.148,3.522c2.064-2.75,4.703-4.121,7.914-4.121c5.76,0,8.676,3.844,8.754,11.522v22.204 h-5.293v-21.97c0-2.551-0.426-4.355-1.275-5.432s-2.135-1.613-3.836-1.613c-1.326,0-2.516,0.442-3.564,1.327 c-1.051,0.885-1.9,2.039-2.543,3.462v24.226h-5.328v-33.128H386.785z"></path> <path fill="#243447" d="M423.228,497.568c-4.053,0-7.166-1.206-9.328-3.627c-2.168-2.421-3.271-5.961-3.314-10.638v-3.939 c0-4.851,1.059-8.659,3.176-11.419c2.117-2.759,5.068-4.139,8.859-4.139c3.809,0,6.664,1.215,8.547,3.645s2.846,6.212,2.889,11.349 v3.488h-18.178v0.755c0,3.488,0.66,6.03,1.971,7.609c1.309,1.588,3.201,2.378,5.674,2.378c1.563,0,2.941-0.295,4.139-0.885 c1.197-0.591,2.309-1.527,3.357-2.812l2.77,3.366C431.48,495.937,427.957,497.568,423.228,497.568z M422.628,468.371 c-2.203,0-3.844,0.755-4.902,2.272c-1.066,1.519-1.664,3.87-1.805,7.055h12.824v-0.72c-0.139-3.089-0.693-5.293-1.674-6.621 C426.091,469.039,424.607,468.371,422.628,468.371z"></path> <path fill="#243447" d="M449.285,488.865l6.17-24.469h5.414l-9.658,33.128h-3.975l-9.777-33.128h5.414L449.285,488.865z"></path> <g> <path fill="#FAB511" d="M145.354,409.229c-12.677-0.72-40.737,47.731-64.694,100.174c27.557,13.18,70.603,18.915,87.609,17.935 C165.198,470.835,158.75,409.993,145.354,409.229z"></path> <path fill="#FAB511" d="M261.171,354.21c-4.919-13.258-12.043-21.9-18.568-27.393c-13.354-9.501-35.54-22.664-113.848-24 C10.776,300.805,5.692,370.141,6.716,360.752c-22.959,75.939,17.006,116.269,58.317,139.757 c27.401-74.396,59.713-154.629,77.744-153.614c19.418,1.102,32.521,102.378,35.93,179.991 c34.161,0.165,49.163-14.143,52.911-16.876C281.093,474.02,274.89,387.563,261.171,354.21z"></path> </g> </g> </svg> 