<svg id="Swiss_Banking_Logo" data-name="Swiss Banking Logo" xmlns="http://www.w3.org/2000/svg" viewBox="0 0 1000 148.0218"><defs><style>.cls-1{fill:#30383b;}.cls-2{fill:#e30613;}</style></defs><path class="cls-1" d="M122.7524,51.6772c14.6345,5.64,30.3364,14.1776,30.3364,33.5385,0,20.2749-16.3115,33.6888-37.3493,33.6888-21.4941,0-36.5864-13.719-38.5678-34.4525H92.4159c1.83,14.6346,10.8237,22.1045,23.7813,22.1045,12.6525,0,22.4089-6.4026,22.4089-19.2076,0-12.3481-9.9082-17.8351-22.4089-22.7133l-9.4519-3.659c-13.2621-5.03-26.3723-14.6346-26.3723-31.25C80.373,12.0429,95.3127,0,115.4351,0c19.36,0,32.0126,12.5,35.519,30.4883H135.8626c-3.2013-12.5-10.8237-17.6832-21.6474-17.6832-11.4333,0-19.36,6.2492-19.36,15.0915C94.855,38.11,101.41,43.4452,113.3,48.02Z"/><path class="cls-1" d="M190.7366,96.1913,212.841,37.196l21.6467,58.69,16.9211-55.1844h12.1955l-24.0858,76.2215h-9.7564l-17.8358-48.02-17.9884,48.02H183.8763L159.7906,40.7017h13.8723Z"/><path class="cls-1" d="M273.5058,9.2979A9.1448,9.1448,0,0,1,282.8051,0a9.2388,9.2388,0,0,1,9.2987,9.2979,9.299,9.299,0,1,1-18.598,0ZM276.25,116.9232V40.7017h13.72v76.2215Z"/><path class="cls-1" d="M346.8267,59.9093c-2.1339-7.6217-7.4691-10.67-14.482-10.67-6.0973,0-12.348,3.0487-12.348,9.7564,0,5.64,4.8782,9.2993,12.5006,11.5858l6.7077,1.9814c11.5859,3.3538,23.0192,10.2134,23.0192,23.3236,0,13.8724-11.2815,23.0184-27.1352,23.0184-16.4641,0-28.05-9.603-29.5743-26.0671H317.71c1.5243,10.2134,7.47,15.3967,17.5314,15.3967,7.47,0,14.3294-3.659,14.3294-10.5185,0-7.6232-6.5551-10.8237-14.7872-13.2636l-6.7069-1.9813C315.4237,78.66,307.8012,70.733,307.8012,58.9953s11.2815-19.97,25.4583-19.97c13.11,0,23.4762,7.0114,25.7627,20.8838Z"/><path class="cls-1" d="M412.9807,59.9093c-2.1339-7.6217-7.4691-10.67-14.482-10.67-6.0973,0-12.348,3.0487-12.348,9.7564,0,5.64,4.8782,9.2993,12.5006,11.5858l6.7077,1.9814c11.5859,3.3538,23.0192,10.2134,23.0192,23.3236,0,13.8724-11.2815,23.0184-27.1352,23.0184-16.4641,0-28.05-9.603-29.5743-26.0671h12.1955c1.5243,10.2134,7.47,15.3967,17.5314,15.3967,7.47,0,14.3294-3.659,14.3294-10.5185,0-7.6232-6.5551-10.8237-14.7872-13.2636l-6.7069-1.9813C381.5777,78.66,373.9552,70.733,373.9552,58.9953s11.2815-19.97,25.4583-19.97c13.11,0,23.4762,7.0114,25.7627,20.8838Z"/><path class="cls-1" d="M525.0175,55.3362C541.329,58.8419,549.56,71.19,549.56,83.538c0,16.7693-10.67,33.3852-39.7877,33.3852H475.6253V2.5917h29.88c29.1165,0,39.7876,12.6517,39.7876,28.9639C545.2924,42.3793,539.1943,51.9824,525.0175,55.3362Zm-19.0557-4.7248c14.7871,0,25.0005-3.659,25.0005-17.8366s-10.2134-17.8366-25.0005-17.8366H489.65V50.6114ZM489.65,104.5751h20.58c14.7871,0,25.0005-6.4025,25.0005-20.58,0-14.176-10.2134-21.0371-25.0005-21.0371H489.65Z"/><path class="cls-1" d="M609.4643,60.9766c0-8.689-7.9268-11.5859-16.464-11.5859-10.6712,0-19.055,4.2694-26.5249,12.1962v-13.11c6.8595-5.3352,15.5493-9.4512,28.2018-9.4512,14.7871,0,28.507,5.1819,28.507,24.3909v53.5068h-13.72V98.0208c-2.439,12.0428-9.7563,20.8837-24.0865,20.8837-14.7864,0-25.4575-10.0615-25.4575-22.8666,0-13.262,11.1281-20.4267,26.9826-23.7806,14.7864-3.0487,20.4275-5.487,22.5614-8.8409Zm0,12.1947-20.58,7.0129c-8.9942,3.0487-14.3294,6.8595-14.3294,14.6346,0,8.8423,5.7929,14.6345,15.3967,14.6345,9.7564,0,19.6653-8.3839,19.5127-25.3049Z"/><path class="cls-1" d="M657.4788,57.0139c3.5072-10.977,12.3481-17.9884,24.6961-17.9884,16.1589,0,25.61,8.8409,25.61,27.7448v50.1529H694.066V69.5138c0-13.7206-6.7077-20.2749-17.3781-20.2749-10.8237,0-19.2091,6.0973-19.2091,19.2076v48.4767H643.76V40.7017h13.719Z"/><path class="cls-1" d="M742.2316,116.9232H728.5125V2.5917h13.7191V75.763l36.5871-35.0613h15.2449l-36.282,34.4525,41.9224,41.769H781.41l-39.1788-38.72Z"/><path class="cls-1" d="M805.0347,9.2979A9.1441,9.1441,0,0,1,814.3326,0a9.2389,9.2389,0,0,1,9.2994,9.2979,9.1448,9.1448,0,0,1-9.2994,9.2994A9.0536,9.0536,0,0,1,805.0347,9.2979Zm2.7435,107.6253V40.7017h13.7191v76.2215Z"/><path class="cls-1" d="M856.8608,57.0139c3.5072-10.977,12.3481-17.9884,24.6961-17.9884,16.1589,0,25.61,8.8409,25.61,27.7448v50.1529H893.448V69.5138c0-13.7206-6.7077-20.2749-17.3781-20.2749-10.8237,0-19.2091,6.0973-19.2091,19.2076v48.4767H843.1417V40.7017h13.7191Z"/><path class="cls-1" d="M940.5477,91.4649c-9.6045-4.4212-16.3122-12.9569-16.3122-24.5428,0-17.3781,15.0915-27.8966,31.8608-27.8966a38.7954,38.7954,0,0,1,11.2807,1.6762H1000v8.232H980.9442a25.2147,25.2147,0,0,1,7.0129,17.9884c0,17.3781-15.0916,27.8967-31.8608,27.8967a36.4247,36.4247,0,0,1-10.0616-1.3726c-5.487,1.2207-9.7563,4.4212-9.7563,7.7751,0,3.202,2.44,6.4025,10.8237,5.9455l14.94-.914c21.4941-1.3725,32.166,4.42,32.166,17.6832,0,14.4813-14.94,24.0858-39.6359,24.0858-13.262,0-23.7806-3.202-31.8608-7.47V127.29a55.5029,55.5029,0,0,0,32.166,9.4512c15.7019,0,25.1531-3.8109,25.1531-10.5186,0-5.7936-4.4212-9.1475-18.5987-8.232l-13.2621.914c-16.4641,1.0674-22.2563-6.0973-22.41-12.805C925.608,99.6969,932.1623,93.9047,940.5477,91.4649Zm-2.2865-24.5428c0,12.9569,6.4025,20.1216,17.8351,20.1216s17.8365-7.1647,17.8365-20.1216S967.53,46.799,956.0963,46.799,938.2612,53.9637,938.2612,66.9221Z"/><circle class="cls-2" cx="21.6121" cy="21.6121" r="21.6121"/></svg>